<svg class="svg-icon" style="width: 1em; height: 1em;vertical-align: middle;fill: currentColor;overflow: hidden;" viewBox="0 0 1024 1024" version="1.1" xmlns="http://www.w3.org/2000/svg"><path d="M425.426 234.331L762.796 380l-333.5 146.991-3.87-0.889V234.331m-32-136.075c-17.673 0-32 14.327-32 32v762.993c0 17.673 14.327 32 32 32 17.673 0 32-14.327 32-32V591.77c2.302 0.529 4.677 0.806 7.088 0.806 4.263 0 8.634-0.868 12.898-2.747L855.729 408.98c25.563-11.267 25.427-47.586-0.221-58.661L441.129 171.401c-4.203-1.815-8.5-2.651-12.687-2.651a31.46 31.46 0 0 0-3.016 0.145v-38.639c0-17.673-14.327-32-32-32z"  /></svg>