<svg class="svg-icon" style="width: 1em; height: 1em;vertical-align: middle;fill: currentColor;overflow: hidden;" viewBox="0 0 1024 1024" version="1.1" xmlns="http://www.w3.org/2000/svg"><path d="M896 916.32H128v-407.04l340.48 314.56a64.256 64.256 0 0 0 87.04 0L896 509.28v407.04zM512 95.84l368.96 340.48L512 776.8 143.04 436.32 512 95.84z m445.44 328c-0.32-0.64-0.64-1.6-1.28-2.24-0.32-0.64-0.64-1.6-0.96-2.24-0.32-0.32-0.64-0.64-0.64-0.96-0.96-1.28-1.92-2.56-3.2-3.84l-1.6-1.6-0.96-0.96-393.28-363.2c-24.32-22.4-62.72-22.4-87.04 0L75.2 412l-0.96 0.96-1.6 1.6c-1.28 1.28-2.24 2.56-3.2 3.84 0 0.32-0.32 0.64-0.64 0.96-0.32 0.64-0.64 1.6-0.96 2.24-0.64 0.64-0.96 1.6-1.28 2.24-1.6 3.84-2.56 8-2.56 12.48v480c0 35.2 28.8 64 64 64h768c35.2 0 64-28.8 64-64v-480c0-4.48-0.96-8.64-2.56-12.48z"  /></svg>