<?xml version="1.0" encoding="utf-8"?><!-- Uploaded to: SVG Repo, www.svgrepo.com, Generator: SVG Repo Mixer Tools -->
<svg fill="#000000" width="800px" height="800px" viewBox="0 0 24 24" id="open-mail" data-name="Flat Color" xmlns="http://www.w3.org/2000/svg" class="icon flat-color"><path id="primary" d="M21,8H3A1,1,0,0,0,2,9V20a2,2,0,0,0,2,2H20a2,2,0,0,0,2-2V9A1,1,0,0,0,21,8Z" style="fill: rgb(0, 0, 0);"></path><path id="secondary" d="M21.57,8.18,13.12,2.35a2,2,0,0,0-2.24,0L2.43,8.18A1,1,0,0,0,2,9a1,1,0,0,0,.45.82L8,13.56,6.29,15.29a1,1,0,0,0,1.42,1.42l2-2,1.17.77a2,2,0,0,0,2.2,0l1.17-.77,2,2a1,1,0,0,0,1.42,0,1,1,0,0,0,0-1.42L16,13.56l5.58-3.73A1,1,0,0,0,22,9,1,1,0,0,0,21.57,8.18Z" style="fill: rgb(44, 169, 188);"></path></svg>